<svg width="200" height="98" viewBox="0 0 200 98" fill="none" xmlns="http://www.w3.org/2000/svg">
<path d="M199.5 44C199.5 49.1981 196.801 54.2043 191.803 58.813C186.804 63.4221 179.543 67.5958 170.529 71.1113C152.504 78.1412 127.568 82.5 100 82.5C72.4318 82.5 47.4962 78.1412 29.471 71.1113C20.4568 67.5958 13.1961 63.4221 8.19743 58.813C3.19925 54.2043 0.5 49.1981 0.5 44C0.5 38.8019 3.19925 33.7957 8.19743 29.187C13.1961 24.5779 20.4568 20.4042 29.471 16.8887C47.4962 9.85884 72.4318 5.5 100 5.5C127.568 5.5 152.504 9.85884 170.529 16.8887C179.543 20.4042 186.804 24.5779 191.803 29.187C196.801 33.7957 199.5 38.8019 199.5 44Z" fill="black" stroke="black"/>
<path d="M11.2003 70.488L17.8243 69.408V16.992L11.2003 15.984V14.4H38.7763C44.0563 14.4 48.7363 15.6 52.8163 18C56.9443 20.352 60.1603 23.712 62.4643 28.08C64.7683 32.4 65.9203 37.44 65.9203 43.2C65.9203 48.96 64.7683 54.024 62.4643 58.392C60.1603 62.712 56.9443 66.072 52.8163 68.472C48.6883 70.824 44.0083 72 38.7763 72H11.2003V70.488ZM38.7763 70.272C42.2803 70.272 45.3763 69.456 48.0643 67.824C50.8003 66.192 52.9363 63.768 54.4723 60.552C56.0083 57.288 56.7763 53.352 56.7763 48.744V37.656C56.7763 33.048 56.0083 29.136 54.4723 25.92C52.9363 22.704 50.8003 20.28 48.0643 18.648C45.3763 17.016 42.2803 16.2 38.7763 16.2H25.7443V70.272H38.7763ZM90.5066 73.44L70.2026 16.992L65.3786 15.984V14.4H85.3946V15.984L78.8426 16.992L94.3226 59.616L104.835 32.112L99.4346 16.992L92.8106 15.984V14.4H114.195V15.984L108.003 16.848L123.627 59.544L139.107 19.224L130.971 15.984V14.4H146.451V15.984L140.979 19.152L120.387 73.44H119.811L105.771 34.632L91.0826 73.44H90.5066ZM170.431 73.44C165.967 73.44 161.575 72.168 157.255 69.624L151.135 72.72H149.551V54.216H151.135L157.327 67.608C161.311 70.44 165.871 71.856 171.007 71.856C175.231 71.856 178.711 70.752 181.447 68.544C184.231 66.288 185.623 63.144 185.623 59.112C185.623 56.184 184.735 53.88 182.959 52.2C181.183 50.472 178.303 49.104 174.319 48.096L162.367 45C158.191 43.896 155.047 42.024 152.935 39.384C150.823 36.696 149.767 33.528 149.767 29.88C149.767 26.568 150.415 23.64 151.711 21.096C153.055 18.504 154.999 16.512 157.543 15.12C160.087 13.68 163.111 12.96 166.615 12.96C170.983 12.96 174.895 13.704 178.351 15.192L183.607 12.96H185.191V27.648H183.607L178.423 17.136C174.823 15.408 170.911 14.544 166.687 14.544C162.511 14.544 159.223 15.624 156.823 17.784C154.423 19.896 153.223 22.704 153.223 26.208C153.223 28.8 154.063 30.84 155.743 32.328C157.471 33.816 159.991 34.992 163.303 35.856L176.191 39.24C180.367 40.296 183.463 42.12 185.479 44.712C187.543 47.256 188.575 51.144 188.575 56.376C188.575 61.704 186.919 65.88 183.607 68.904C180.343 71.928 175.951 73.44 170.431 73.44Z" fill="white"/>
<path d="M11.2003 70.488L11.0394 69.501L10.2003 69.6378V70.488H11.2003ZM17.8243 69.408L17.9852 70.395L18.8243 70.2582V69.408H17.8243ZM17.8243 16.992H18.8243V16.1327L17.9748 16.0034L17.8243 16.992ZM11.2003 15.984H10.2003V16.8433L11.0499 16.9726L11.2003 15.984ZM11.2003 14.4V13.4H10.2003V14.4H11.2003ZM52.8163 18L52.3092 18.862L52.3213 18.8689L52.8163 18ZM62.4643 28.08L61.5798 28.5466L61.582 28.5506L62.4643 28.08ZM62.4643 58.392L63.3467 58.8626L63.3488 58.8585L62.4643 58.392ZM52.8163 68.472L53.3114 69.3409L53.3189 69.3365L52.8163 68.472ZM11.2003 72H10.2003V73H11.2003V72ZM48.0643 67.824L47.552 66.9652L47.5453 66.9692L48.0643 67.824ZM54.4723 60.552L55.3747 60.983L55.3771 60.9778L54.4723 60.552ZM54.4723 25.92L55.3747 25.489L54.4723 25.92ZM48.0643 18.648L47.5453 19.5028L47.552 19.5068L48.0643 18.648ZM25.7443 16.2V15.2H24.7443V16.2H25.7443ZM25.7443 70.272H24.7443V71.272H25.7443V70.272ZM11.3612 71.475L17.9852 70.395L17.6634 68.421L11.0394 69.501L11.3612 71.475ZM18.8243 69.408V16.992H16.8243V69.408H18.8243ZM17.9748 16.0034L11.3508 14.9954L11.0499 16.9726L17.6739 17.9806L17.9748 16.0034ZM12.2003 15.984V14.4H10.2003V15.984H12.2003ZM11.2003 15.4H38.7763V13.4H11.2003V15.4ZM38.7763 15.4C43.8991 15.4 48.4002 16.5625 52.3093 18.8619L53.3233 17.1381C49.0724 14.6375 44.2135 13.4 38.7763 13.4V15.4ZM52.3213 18.8689C56.277 21.1227 59.361 24.34 61.5798 28.5465L63.3488 27.6135C60.9596 23.084 57.6116 19.5813 53.3114 17.1311L52.3213 18.8689ZM61.582 28.5506C63.7961 32.7022 64.9203 37.5752 64.9203 43.2H66.9203C66.9203 37.3048 65.7405 32.0978 63.3467 27.6094L61.582 28.5506ZM64.9203 43.2C64.9203 48.8245 63.7962 53.7235 61.5798 57.9255L63.3488 58.8585C65.7404 54.3245 66.9203 49.0955 66.9203 43.2H64.9203ZM61.582 57.9214C59.3631 62.0817 56.2767 65.3034 52.3137 67.6075L53.3189 69.3365C57.6119 66.8406 60.9575 63.3423 63.3467 58.8626L61.582 57.9214ZM52.3213 67.6031C48.359 69.8607 43.8527 71 38.7763 71V73C44.1639 73 49.0176 71.7873 53.3114 69.3409L52.3213 67.6031ZM38.7763 71H11.2003V73H38.7763V71ZM12.2003 72V70.488H10.2003V72H12.2003ZM38.7763 71.272C42.4418 71.272 45.7214 70.4163 48.5833 68.6788L47.5453 66.9692C45.0312 68.4957 42.1188 69.272 38.7763 69.272V71.272ZM48.5766 68.6828C51.5017 66.938 53.7641 64.355 55.3747 60.983L53.57 60.121C52.1085 63.181 50.099 65.446 47.552 66.9652L48.5766 68.6828ZM55.3771 60.9778C56.9907 57.549 57.7763 53.4598 57.7763 48.744H55.7763C55.7763 53.2442 55.0259 57.027 53.5675 60.1262L55.3771 60.9778ZM57.7763 48.744V37.656H55.7763V48.744H57.7763ZM57.7763 37.656C57.7763 32.9409 56.9909 28.873 55.3747 25.489L53.57 26.351C55.0257 29.399 55.7763 33.1551 55.7763 37.656H57.7763ZM55.3747 25.489C53.7641 22.117 51.5017 19.534 48.5766 17.7892L47.552 19.5068C50.099 21.026 52.1085 23.291 53.57 26.351L55.3747 25.489ZM48.5833 17.7932C45.7214 16.0557 42.4418 15.2 38.7763 15.2V17.2C42.1188 17.2 45.0312 17.9763 47.5453 19.5028L48.5833 17.7932ZM38.7763 15.2H25.7443V17.2H38.7763V15.2ZM24.7443 16.2V70.272H26.7443V16.2H24.7443ZM25.7443 71.272H38.7763V69.272H25.7443V71.272ZM90.5066 73.44L89.5656 73.7785L89.8036 74.44H90.5066V73.44ZM70.2026 16.992L71.1436 16.6535L70.9544 16.1275L70.4072 16.0131L70.2026 16.992ZM65.3786 15.984H64.3786V16.7966L65.1741 16.9629L65.3786 15.984ZM65.3786 14.4V13.4H64.3786V14.4H65.3786ZM85.3946 14.4H86.3946V13.4H85.3946V14.4ZM85.3946 15.984L85.5467 16.9724L86.3946 16.8419V15.984H85.3946ZM78.8426 16.992L78.6906 16.0036L77.487 16.1888L77.9027 17.3334L78.8426 16.992ZM94.3226 59.616L93.3827 59.9574L94.2987 62.4796L95.2567 59.973L94.3226 59.616ZM104.835 32.112L105.769 32.469L105.901 32.1237L105.776 31.7757L104.835 32.112ZM99.4346 16.992L100.376 16.6557L100.175 16.0932L99.5851 16.0034L99.4346 16.992ZM92.8106 15.984H91.8106V16.8433L92.6602 16.9726L92.8106 15.984ZM92.8106 14.4V13.4H91.8106V14.4H92.8106ZM114.195 14.4H115.195V13.4H114.195V14.4ZM114.195 15.984L114.333 16.9744L115.195 16.8541V15.984H114.195ZM108.003 16.848L107.864 15.8576L106.638 16.0287L107.064 17.1916L108.003 16.848ZM123.627 59.544L122.688 59.8876L123.604 62.3925L124.56 59.9024L123.627 59.544ZM139.107 19.224L140.04 19.5824L140.394 18.6604L139.477 18.295L139.107 19.224ZM130.971 15.984H129.971V16.6621L130.601 16.913L130.971 15.984ZM130.971 14.4V13.4H129.971V14.4H130.971ZM146.451 14.4H147.451V13.4H146.451V14.4ZM146.451 15.984L146.952 16.8494L147.451 16.5605V15.984H146.451ZM140.979 19.152L140.478 18.2866L140.17 18.4648L140.044 18.7973L140.979 19.152ZM120.387 73.44V74.44H121.077L121.322 73.7947L120.387 73.44ZM119.811 73.44L118.87 73.7802L119.109 74.44H119.811V73.44ZM105.771 34.632L106.711 34.2918L105.792 31.751L104.835 34.278L105.771 34.632ZM91.0826 73.44V74.44H91.7734L92.0179 73.794L91.0826 73.44ZM91.4476 73.1015L71.1436 16.6535L69.2616 17.3305L89.5656 73.7785L91.4476 73.1015ZM70.4072 16.0131L65.5832 15.0051L65.1741 16.9629L69.9981 17.9709L70.4072 16.0131ZM66.3786 15.984V14.4H64.3786V15.984H66.3786ZM65.3786 15.4H85.3946V13.4H65.3786V15.4ZM84.3946 14.4V15.984H86.3946V14.4H84.3946ZM85.2426 14.9956L78.6906 16.0036L78.9947 17.9804L85.5467 16.9724L85.2426 14.9956ZM77.9027 17.3334L93.3827 59.9574L95.2626 59.2746L79.7826 16.6506L77.9027 17.3334ZM95.2567 59.973L105.769 32.469L103.901 31.755L93.3885 59.259L95.2567 59.973ZM105.776 31.7757L100.376 16.6557L98.4929 17.3283L103.893 32.4483L105.776 31.7757ZM99.5851 16.0034L92.9611 14.9954L92.6602 16.9726L99.2842 17.9806L99.5851 16.0034ZM93.8106 15.984V14.4H91.8106V15.984H93.8106ZM92.8106 15.4H114.195V13.4H92.8106V15.4ZM113.195 14.4V15.984H115.195V14.4H113.195ZM114.056 14.9936L107.864 15.8576L108.141 17.8384L114.333 16.9744L114.056 14.9936ZM107.064 17.1916L122.688 59.8876L124.566 59.2003L108.942 16.5043L107.064 17.1916ZM124.56 59.9024L140.04 19.5824L138.173 18.8656L122.693 59.1856L124.56 59.9024ZM139.477 18.295L131.341 15.055L130.601 16.913L138.737 20.153L139.477 18.295ZM131.971 15.984V14.4H129.971V15.984H131.971ZM130.971 15.4H146.451V13.4H130.971V15.4ZM145.451 14.4V15.984H147.451V14.4H145.451ZM145.95 15.1186L140.478 18.2866L141.48 20.0174L146.952 16.8494L145.95 15.1186ZM140.044 18.7973L119.452 73.0853L121.322 73.7947L141.914 19.5067L140.044 18.7973ZM120.387 72.44H119.811V74.44H120.387V72.44ZM120.751 73.0998L106.711 34.2918L104.83 34.9722L118.87 73.7802L120.751 73.0998ZM104.835 34.278L90.1474 73.086L92.0179 73.794L106.706 34.986L104.835 34.278ZM91.0826 72.44H90.5066V74.44H91.0826V72.44ZM157.255 69.624L157.762 68.7623L157.291 68.4849L156.803 68.7317L157.255 69.624ZM151.135 72.72V73.72H151.373L151.586 73.6123L151.135 72.72ZM149.551 72.72H148.551V73.72H149.551V72.72ZM149.551 54.216V53.216H148.551V54.216H149.551ZM151.135 54.216L152.042 53.7963L151.774 53.216H151.135V54.216ZM157.327 67.608L156.419 68.0277L156.53 68.269L156.747 68.4231L157.327 67.608ZM181.447 68.544L182.075 69.3222L182.076 69.3209L181.447 68.544ZM182.959 52.2L182.261 52.9168L182.271 52.9265L182.959 52.2ZM174.319 48.096L174.068 49.0641L174.073 49.0654L174.319 48.096ZM162.367 45L162.111 45.9668L162.116 45.968L162.367 45ZM152.935 39.384L152.148 40.0018L152.154 40.0087L152.935 39.384ZM151.711 21.096L150.823 20.6357L150.82 20.6421L151.711 21.096ZM157.543 15.12L158.023 15.9973L158.029 15.9938L158.035 15.9903L157.543 15.12ZM178.351 15.192L177.955 16.1105L178.348 16.2796L178.741 16.1124L178.351 15.192ZM183.607 12.96V11.96H183.403L183.216 12.0396L183.607 12.96ZM185.191 12.96H186.191V11.96H185.191V12.96ZM185.191 27.648V28.648H186.191V27.648H185.191ZM183.607 27.648L182.71 28.0903L182.985 28.648H183.607V27.648ZM178.423 17.136L179.319 16.6937L179.167 16.3839L178.855 16.2345L178.423 17.136ZM156.823 17.784L157.483 18.5348L157.492 18.5273L156.823 17.784ZM155.743 32.328L155.079 33.0767L155.09 33.0858L155.743 32.328ZM163.303 35.856L163.557 34.8888L163.555 34.8884L163.303 35.856ZM176.191 39.24L175.937 40.2073L175.945 40.2095L176.191 39.24ZM185.479 44.712L184.689 45.3259L184.696 45.3341L184.702 45.342L185.479 44.712ZM183.607 68.904L182.932 68.1655L182.927 68.1704L183.607 68.904ZM170.431 72.44C166.166 72.44 161.948 71.2272 157.762 68.7623L156.747 70.4857C161.202 73.1088 165.767 74.44 170.431 74.44V72.44ZM156.803 68.7317L150.683 71.8277L151.586 73.6123L157.706 70.5163L156.803 68.7317ZM151.135 71.72H149.551V73.72H151.135V71.72ZM150.551 72.72V54.216H148.551V72.72H150.551ZM149.551 55.216H151.135V53.216H149.551V55.216ZM150.227 54.6357L156.419 68.0277L158.234 67.1883L152.042 53.7963L150.227 54.6357ZM156.747 68.4231C160.909 71.3817 165.674 72.856 171.007 72.856V70.856C166.067 70.856 161.712 69.4983 157.906 66.7929L156.747 68.4231ZM171.007 72.856C175.411 72.856 179.127 71.7011 182.075 69.3222L180.819 67.7658C178.294 69.8029 175.05 70.856 171.007 70.856V72.856ZM182.076 69.3209C185.126 66.8497 186.623 63.4029 186.623 59.112H184.623C184.623 62.8851 183.335 65.7263 180.817 67.7671L182.076 69.3209ZM186.623 59.112C186.623 55.9679 185.66 53.3793 183.646 51.4735L182.271 52.9265C183.809 54.3807 184.623 56.4001 184.623 59.112H186.623ZM183.656 51.4833C181.697 49.5769 178.618 48.1524 174.564 47.1265L174.073 49.0654C177.987 50.0556 180.669 51.3671 182.261 52.9167L183.656 51.4833ZM174.569 47.1279L162.617 44.0319L162.116 45.968L174.068 49.064L174.569 47.1279ZM162.622 44.0332C158.595 42.9687 155.66 41.1905 153.715 38.7593L152.154 40.0087C154.433 42.8575 157.786 44.8233 162.111 45.9668L162.622 44.0332ZM153.721 38.7662C151.757 36.2666 150.767 33.32 150.767 29.88H148.767C148.767 33.736 149.888 37.1254 152.148 40.0018L153.721 38.7662ZM150.767 29.88C150.767 26.7005 151.388 23.9324 152.602 21.5499L150.82 20.6421C149.441 23.3476 148.767 26.4355 148.767 29.88H150.767ZM152.598 21.5563C153.852 19.1394 155.654 17.2932 158.023 15.9973L157.063 14.2427C154.343 15.7308 152.258 17.8686 150.823 20.6357L152.598 21.5563ZM158.035 15.9903C160.402 14.6507 163.249 13.96 166.615 13.96V11.96C162.972 11.96 159.771 12.7093 157.05 14.2497L158.035 15.9903ZM166.615 13.96C170.868 13.96 174.642 14.6842 177.955 16.1105L178.746 14.2735C175.147 12.7238 171.097 11.96 166.615 11.96V13.96ZM178.741 16.1124L183.997 13.8804L183.216 12.0396L177.96 14.2716L178.741 16.1124ZM183.607 13.96H185.191V11.96H183.607V13.96ZM184.191 12.96V27.648H186.191V12.96H184.191ZM185.191 26.648H183.607V28.648H185.191V26.648ZM184.503 27.2057L179.319 16.6937L177.526 17.5783L182.71 28.0903L184.503 27.2057ZM178.855 16.2345C175.112 14.4379 171.051 13.544 166.687 13.544V15.544C170.77 15.544 174.533 16.3781 177.99 18.0375L178.855 16.2345ZM166.687 13.544C162.338 13.544 158.786 14.6716 156.154 17.0407L157.492 18.5273C159.659 16.5764 162.683 15.544 166.687 15.544V13.544ZM156.162 17.0333C153.524 19.3547 152.223 22.4476 152.223 26.208H154.223C154.223 22.9604 155.321 20.4373 157.483 18.5347L156.162 17.0333ZM152.223 26.208C152.223 29.0373 153.151 31.3686 155.08 33.0766L156.406 31.5794C154.974 30.3114 154.223 28.5627 154.223 26.208H152.223ZM155.09 33.0858C156.977 34.7106 159.658 35.9387 163.05 36.8236L163.555 34.8884C160.323 34.0453 157.964 32.9214 156.395 31.5702L155.09 33.0858ZM163.049 36.8232L175.937 40.2072L176.445 38.2728L163.557 34.8888L163.049 36.8232ZM175.945 40.2095C179.973 41.228 182.847 42.9578 184.689 45.3259L186.268 44.0981C184.078 41.2822 180.76 39.364 176.436 38.2705L175.945 40.2095ZM184.702 45.342C186.557 47.6288 187.575 51.2453 187.575 56.376H189.575C189.575 51.0427 188.528 46.8832 186.255 44.082L184.702 45.342ZM187.575 56.376C187.575 61.4806 185.998 65.3666 182.932 68.1655L184.281 69.6425C187.839 66.3934 189.575 61.9274 189.575 56.376H187.575ZM182.927 68.1704C179.89 70.9844 175.762 72.44 170.431 72.44V74.44C176.139 74.44 180.796 72.8716 184.286 69.6376L182.927 68.1704Z" fill="black"/>
</svg>
