<svg width="24" height="24" viewBox="0 0 24 24" fill="none" xmlns="http://www.w3.org/2000/svg">
<g clip-path="url(#clip0_100_420)">
<path d="M22.975 8.69398L15.889 1.608C13.7396 -0.535918 10.2605 -0.535918 8.11101 1.608L1.02503 8.69398C0.366528 9.34897 -0.0025647 10.2402 1.34159e-05 11.169V21.5469C0.00221654 22.9016 1.1004 23.9988 2.45504 24H21.545C22.8996 23.9989 23.9978 22.9016 24 21.5469V11.169C24.0026 10.2402 23.6335 9.34897 22.975 8.69398ZM21 21H16V17.818C16 15.7093 14.2906 13.9999 12.182 13.9999H11.818C9.7094 13.9999 8.00001 15.7093 8.00001 17.818V21H3.00001V11.169C3.00033 11.0364 3.05274 10.9092 3.14602 10.815L10.232 3.729C11.2082 2.75254 12.7911 2.75236 13.7675 3.72853C13.7677 3.72867 13.7679 3.72885 13.768 3.729L20.854 10.815C20.9472 10.9092 20.9997 11.0364 21 11.169V21H21Z" fill="white"/>
</g>
<defs>
<clipPath id="clip0_100_420">
<rect width="24" height="24" fill="white"/>
</clipPath>
</defs>
</svg>
