<svg width="24" height="24" viewBox="0 0 24 24" fill="none" xmlns="http://www.w3.org/2000/svg">
<path d="M11.4524 14.018C7.19063 14.4032 3.94378 18.0043 4.00036 22.283V22.5C4.00036 23.3284 4.67194 24 5.50036 24C6.32878 24 7.00036 23.3284 7.00036 22.5V22.223C6.95527 19.5959 8.89402 17.3556 11.5004 17.023C14.2516 16.7502 16.7031 18.7594 16.9759 21.5106C16.992 21.6733 17.0002 21.8366 17.0003 22V22.5C17.0003 23.3284 17.6719 24 18.5003 24C19.3288 24 20.0003 23.3284 20.0003 22.5V22C19.9955 17.5767 16.4057 13.9949 11.9825 13.9998C11.8057 14.0001 11.6288 14.0061 11.4524 14.018Z" fill="white"/>
<path d="M12.0004 12C15.3141 12 18.0004 9.31369 18.0004 6C18.0004 2.68631 15.3141 0 12.0004 0C8.68668 0 6.00037 2.68631 6.00037 6C6.00365 9.31233 8.68804 11.9967 12.0004 12ZM12.0004 3C13.6572 3 15.0004 4.34316 15.0004 6C15.0004 7.65684 13.6572 9 12.0004 9C10.3435 9 9.00037 7.65684 9.00037 6C9.00037 4.34316 10.3435 3 12.0004 3Z" fill="white"/>
</svg>
