<svg width="25" height="24" viewBox="0 0 25 24" fill="none" xmlns="http://www.w3.org/2000/svg">
<g clip-path="url(#clip0_100_117)">
<path d="M23.811 21.4452L19.1659 16.7981C22.6416 12.1533 21.6939 5.57034 17.0491 2.09462C12.4043 -1.3811 5.82132 -0.433388 2.34559 4.21139C-1.13013 8.85616 -0.182411 15.4392 4.46236 18.9149C8.19343 21.7069 13.318 21.7069 17.0491 18.9149L21.6962 23.562C22.2802 24.146 23.227 24.146 23.811 23.562C24.395 22.978 24.395 22.0312 23.811 21.4472L23.811 21.4452ZM10.7945 18.0179C6.6664 18.0179 3.31999 14.6715 3.31999 10.5435C3.31999 6.41542 6.6664 3.06901 10.7945 3.06901C14.9225 3.06901 18.2689 6.41542 18.2689 10.5435C18.2645 14.6697 14.9207 18.0136 10.7945 18.0179Z" fill="white"/>
</g>
<defs>
<clipPath id="clip0_100_117">
<rect width="24" height="24" fill="white" transform="translate(0.25)"/>
</clipPath>
</defs>
</svg>
