<svg width="25" height="24" viewBox="0 0 25 24" fill="none" xmlns="http://www.w3.org/2000/svg">
<g clip-path="url(#clip0_100_280)">
<path d="M12.75 8C11.9589 8 11.1855 8.2346 10.5277 8.67412C9.86993 9.11365 9.35723 9.73836 9.05448 10.4693C8.75173 11.2002 8.67252 12.0044 8.82686 12.7804C8.9812 13.5563 9.36216 14.269 9.92157 14.8284C10.481 15.3878 11.1937 15.7688 11.9696 15.9231C12.7456 16.0775 13.5498 15.9983 14.2807 15.6955C15.0116 15.3928 15.6364 14.8801 16.0759 14.2223C16.5154 13.5645 16.75 12.7911 16.75 12C16.75 10.9391 16.3286 9.92172 15.5784 9.17157C14.8283 8.42143 13.8109 8 12.75 8ZM12.75 14C12.3544 14 11.9678 13.8827 11.6389 13.6629C11.31 13.4432 11.0536 13.1308 10.9022 12.7654C10.7509 12.3999 10.7113 11.9978 10.7884 11.6098C10.8656 11.2219 11.0561 10.8655 11.3358 10.5858C11.6155 10.3061 11.9719 10.1156 12.3598 10.0384C12.7478 9.96126 13.1499 10.0009 13.5154 10.1522C13.8808 10.3036 14.1932 10.56 14.4129 10.8889C14.6327 11.2178 14.75 11.6044 14.75 12C14.75 12.5304 14.5393 13.0391 14.1642 13.4142C13.7891 13.7893 13.2804 14 12.75 14Z" fill="white"/>
<path d="M22.044 13.9L21.6 13.644C21.7999 12.5564 21.7999 11.4416 21.6 10.354L22.044 10.098C22.3854 9.90101 22.6847 9.63871 22.9248 9.32606C23.1648 9.01341 23.341 8.65654 23.4431 8.27582C23.5453 7.8951 23.5714 7.49798 23.5201 7.10716C23.4688 6.71633 23.341 6.33944 23.144 5.998C22.947 5.65656 22.6847 5.35727 22.372 5.1172C22.0594 4.87714 21.7025 4.701 21.3218 4.59886C20.9411 4.49672 20.544 4.47056 20.1531 4.52189C19.7623 4.57321 19.3854 4.70102 19.044 4.898L18.599 5.155C17.7585 4.43692 16.7926 3.88025 15.75 3.513V3C15.75 2.20435 15.4339 1.44129 14.8713 0.878679C14.3087 0.31607 13.5456 0 12.75 0C11.9543 0 11.1913 0.31607 10.6287 0.878679C10.066 1.44129 9.74998 2.20435 9.74998 3V3.513C8.70737 3.88157 7.74183 4.4396 6.90198 5.159L6.45498 4.9C5.76542 4.50217 4.94606 4.39457 4.17716 4.60086C3.40826 4.80715 2.75281 5.31044 2.35498 6C1.95716 6.68956 1.84955 7.50892 2.05584 8.27781C2.26213 9.04671 2.76542 9.70217 3.45498 10.1L3.89898 10.356C3.69909 11.4436 3.69909 12.5584 3.89898 13.646L3.45498 13.902C2.76542 14.2998 2.26213 14.9553 2.05584 15.7242C1.84955 16.4931 1.95716 17.3124 2.35498 18.002C2.75281 18.6916 3.40826 19.1948 4.17716 19.4011C4.94606 19.6074 5.76542 19.4998 6.45498 19.102L6.89998 18.845C7.74075 19.5632 8.70696 20.1199 9.74998 20.487V21C9.74998 21.7956 10.066 22.5587 10.6287 23.1213C11.1913 23.6839 11.9543 24 12.75 24C13.5456 24 14.3087 23.6839 14.8713 23.1213C15.4339 22.5587 15.75 21.7956 15.75 21V20.487C16.7926 20.1184 17.7581 19.5604 18.598 18.841L19.045 19.099C19.7345 19.4968 20.5539 19.6044 21.3228 19.3981C22.0917 19.1918 22.7472 18.6886 23.145 17.999C23.5428 17.3094 23.6504 16.4901 23.4441 15.7212C23.2378 14.9523 22.7345 14.2968 22.045 13.899L22.044 13.9ZM19.496 10.124C19.8346 11.3511 19.8346 12.6469 19.496 13.874C19.4368 14.0876 19.4503 14.3147 19.5343 14.5198C19.6183 14.7249 19.768 14.8962 19.96 15.007L21.044 15.633C21.2738 15.7656 21.4415 15.9841 21.5102 16.2403C21.579 16.4966 21.5431 16.7697 21.4105 16.9995C21.2779 17.2293 21.0594 17.397 20.8031 17.4658C20.5469 17.5345 20.2738 17.4986 20.044 17.366L18.958 16.738C18.7659 16.6267 18.5422 16.5826 18.3222 16.6124C18.1022 16.6423 17.8985 16.7445 17.743 16.903C16.8529 17.8117 15.7316 18.46 14.5 18.778C14.285 18.8333 14.0945 18.9585 13.9586 19.1339C13.8226 19.3093 13.7489 19.525 13.749 19.747V21C13.749 21.2652 13.6436 21.5196 13.4561 21.7071C13.2685 21.8946 13.0142 22 12.749 22C12.4838 22 12.2294 21.8946 12.0419 21.7071C11.8543 21.5196 11.749 21.2652 11.749 21V19.748C11.7491 19.526 11.6754 19.3103 11.5394 19.1349C11.4034 18.9595 11.2129 18.8343 10.998 18.779C9.76633 18.4597 8.64531 17.81 7.75598 16.9C7.6005 16.7415 7.39672 16.6393 7.17674 16.6094C6.95675 16.5796 6.73309 16.6237 6.54098 16.735L5.45698 17.362C5.34321 17.4287 5.21737 17.4722 5.08671 17.4901C4.95604 17.508 4.82313 17.4998 4.69563 17.4661C4.56814 17.4324 4.44856 17.3738 4.3438 17.2937C4.23904 17.2136 4.15116 17.1135 4.08522 16.9993C4.01928 16.8851 3.97658 16.759 3.95958 16.6282C3.94258 16.4974 3.95162 16.3646 3.98617 16.2373C4.02073 16.11 4.08011 15.9908 4.16091 15.8866C4.24172 15.7824 4.34234 15.6952 4.45698 15.63L5.54098 15.004C5.73293 14.8932 5.88266 14.7219 5.96664 14.5168C6.05062 14.3117 6.06411 14.0846 6.00498 13.871C5.66634 12.6439 5.66634 11.3481 6.00498 10.121C6.06305 9.90788 6.04892 9.68153 5.9648 9.47729C5.88067 9.27305 5.7313 9.1024 5.53998 8.992L4.45598 8.366C4.22617 8.23339 4.05845 8.01492 3.98972 7.75865C3.92099 7.50238 3.95687 7.22931 4.08948 6.9995C4.22209 6.76969 4.44056 6.60197 4.69683 6.53324C4.95309 6.4645 5.22617 6.50039 5.45598 6.633L6.54198 7.261C6.73356 7.37251 6.95676 7.41721 7.17651 7.38807C7.39625 7.35892 7.60009 7.25759 7.75598 7.1C8.64607 6.19134 9.7674 5.54302 10.999 5.225C11.2146 5.16956 11.4056 5.04375 11.5416 4.8675C11.6777 4.69125 11.751 4.47464 11.75 4.252V3C11.75 2.73478 11.8553 2.48043 12.0429 2.29289C12.2304 2.10536 12.4848 2 12.75 2C13.0152 2 13.2695 2.10536 13.4571 2.29289C13.6446 2.48043 13.75 2.73478 13.75 3V4.252C13.7499 4.47396 13.8236 4.68964 13.9596 4.86508C14.0955 5.04052 14.286 5.16573 14.501 5.221C15.733 5.54015 16.8544 6.18988 17.744 7.1C17.8995 7.25846 18.1032 7.36069 18.3232 7.39056C18.5432 7.42044 18.7669 7.37626 18.959 7.265L20.043 6.638C20.1567 6.5713 20.2826 6.52777 20.4133 6.5099C20.5439 6.49203 20.6768 6.50019 20.8043 6.5339C20.9318 6.56761 21.0514 6.6262 21.1562 6.70631C21.2609 6.78642 21.3488 6.88646 21.4147 7.00067C21.4807 7.11488 21.5234 7.24101 21.5404 7.37179C21.5574 7.50257 21.5483 7.63542 21.5138 7.76269C21.4792 7.88996 21.4198 8.00914 21.339 8.11337C21.2582 8.2176 21.1576 8.30482 21.043 8.37L19.959 8.996C19.768 9.1067 19.6191 9.27747 19.5353 9.48169C19.4516 9.68591 19.4377 9.9121 19.496 10.125V10.124Z" fill="white"/>
</g>
<defs>
<clipPath id="clip0_100_280">
<rect width="24" height="24" fill="white" transform="translate(0.75)"/>
</clipPath>
</defs>
</svg>
